<?xml version="1.0" encoding="UTF-8"?>
<svg id="Layer_1" data-name="Layer 1" xmlns="http://www.w3.org/2000/svg" viewBox="0 0 1366 768">
  <defs>
    <style>
      .cls-1 {
        fill: #fff;
      }

      .cls-2 {
        fill: none;
        stroke: #fff
        stroke-miterlimit: 10;
        stroke-width: 2px;
      }
    </style>
  </defs>
  <path class="cls-1" d="m616.62,308.38c-1.59,22.66-6.66,50.7-22.82,74.86-29.54,44.16-63.06,50.17-113.42,105.84-15.64,17.29-27,33.19-35.24,46.9,0,0-16.68-55.27,11.49-116.85,21.68-47.42,41.88-58.71,52.92-70.48,43.84-33.86,83.54-40.24,107.07-40.27Z"/>
  <path class="cls-1" d="m664.24,518.33c-1.1,26.37-3.32,65.77-3.32,65.77,0,0,.02.04.07.11l-202.08-.04s.01-.05.02-.07c5.1-18.68,31.36-56.64,39.01-66.4,7.65-9.75,37.21-39.31,49.51-50.56,12.31-11.25,47.12-45.16,61.67-59.27,14.56-14.1,33.16-8.25,33.76-7.8.6.45,17.6,4.84,21.59,22.56,3.98,17.72.88,69.34-.23,95.7Z"/>
  <path class="cls-1" d="m737.42,584.23h-46c2.24-29.55,1.04-73.94,1.04-91.06,0-20.4-3.94-46.63,1.03-69.94,4.97-23.31,15.43-31.71,27.08-48,2.52-3.51,6.56-8.01,11.44-13.1,9.93,11.02,25.88,33.33,37.31,71.95,0,0,15.74,78.59-31.9,150.15Z"/>
  <path class="cls-1" d="m713.42,343.61c-3.08,3.44-6.21,7.07-9.35,10.92-28.58,35.02-42.86,23.47-49.79,20.68-6.61-2.66-14.38-12.81-15.82-20.62-1.22-6.61.53-28.82,1.34-43.86,6.29,1,46.54,8.23,73.62,32.88Z"/>
  <path class="cls-2" d="m737.42,584.23s-.01.01-.01.01"/>
</svg>