<?xml version="1.0" encoding="UTF-8"?>
<svg id="Layer_1" data-name="Layer 1" xmlns="http://www.w3.org/2000/svg" viewBox="0 0 1366 768">
  <defs>
    <style>
      .cls-1 {
        fill: #fff;
      }
    </style>
  </defs>
  <path class="cls-1" d="m856.92,271.24c-.46,3.67-1.34,7.34-2.75,10.97-5.91,15.19-34.49,41.44-52.16,59.92-4.88,5.09-8.92,9.59-11.44,13.1-11.65,16.29-22.11,24.69-27.08,48-4.97,23.31-1.03,49.54-1.03,69.94,0,17.12,1.2,61.51-1.04,91.05h-30.43c-.05-.08-.07-.12-.07-.12,0,0,2.22-39.4,3.32-65.77,1.11-26.36,4.21-77.98.23-95.7-3.99-17.72-20.99-22.11-21.59-22.56-.6-.45-19.2-6.3-33.76,7.8-14.55,14.11-49.36,48.02-61.67,59.27-12.3,11.25-41.86,40.81-49.51,50.56-7.65,9.76-33.91,47.72-39.01,66.4-.01.02-.01.05-.02.07h-34.57c.96-4.51,4.11-16.63,12.9-33.94,2.24-4.42,4.86-9.19,7.9-14.25,8.24-13.71,19.6-29.61,35.24-46.9,50.36-55.67,83.88-61.68,113.42-105.84,16.16-24.16,21.23-52.2,22.82-74.86,1.32-18.75.24-33.81,1.1-39.94,1.04-7.52,1.67-22.12,6.83-35.55,3.6,2.61,8.5,4.93,15.51,7.91,2.72,1.16,5.14,2.46,7.27,3.88-7.17,18.08-6.88,48.09-7.19,58.63-.05,1.72-.14,3.68-.25,5.81-.6.95-.64,1.52-.09,1.61-.81,15.04-2.56,37.25-1.34,43.86,1.44,7.81,9.21,17.96,15.82,20.62,6.93,2.79,21.21,14.34,49.79-20.68,3.14-3.85,6.27-7.48,9.35-10.92,3.22-3.59,6.39-6.99,9.47-10.22,19.31-20.27,35.16-34.24,37.65-51.13,6.42,1.32,16.22,3.96,26.38,8.98Z"/>
</svg>