<?xml version="1.0" encoding="UTF-8"?>
<svg id="Layer_1" data-name="Layer 1" xmlns="http://www.w3.org/2000/svg" viewBox="0 0 1366 768">
  <defs>
    <style>
      .cls-1 {
        fill: #fff
      }
    </style>
  </defs>
  <path class="cls-1" d="m654.28,339.19c-3.13,0-6.21.26-9.2.76-9.48,1.59-18.14,5.58-25.34,11.34-12.69,10.14-20.81,25.75-20.81,43.25,0,9.29,2.29,18.05,6.34,25.74,8.37,3.81,14.85,11.03,17.67,19.89,8.91,6.13,19.71,9.72,31.34,9.72,7.5,0,14.66-1.49,21.18-4.2,8.3-3.44,15.58-8.84,21.26-15.62,8.06-9.62,12.91-22.01,12.91-35.53,0-30.57-24.78-55.35-55.35-55.35Z"/>
  <path class="cls-1" d="m546.1,323c-4.22,23.49-24.75,41.32-49.45,41.32s-45.98-18.47-49.67-42.58c1.05-3.49,1.61-7.19,1.61-11.02,0-2.79-.3-5.52-.87-8.14,5.19-22.21,25.12-38.76,48.93-38.76,21.79,0,40.34,13.88,47.3,33.28-2.63,3.22-4.2,7.34-4.2,11.82,0,5.6,2.45,10.64,6.35,14.08Z"/>
  <path class="cls-1" d="m880.71,619.28c-38.8.12-79.5-1.78-113.18-5.9,4.97-12.4,14.29-22.71,26.16-29.2,1.62.35,3.3.53,5.02.53,6.91,0,13.14-2.93,17.5-7.62,2.27-.26,4.58-.39,6.92-.39,27.61,0,50.85,18.07,57.58,42.58Z"/>
  <path class="cls-1" d="m932.86,374.42c0,10.77-6.44,20.03-15.68,24.14-4.4.17-8.64.93-12.65,2.22-13.72-.97-24.54-12.4-24.54-26.36,0-11.68,7.56-21.58,18.06-25.08,10.71,3.74,21.08,7.54,31.05,11.49h.01c2.38,3.97,3.75,8.62,3.75,13.59Z"/>
  <path class="cls-1" d="m657.91,309.95c0,11.8-4.93,22.45-12.83,30-9.48,1.59-18.14,5.58-25.34,11.34-1.09.09-2.19.13-3.3.13-20.55,0-37.61-14.95-40.9-34.56,1.13-2.41,1.76-5.1,1.76-7.94,0-2.61-.53-5.09-1.5-7.35,3.88-18.89,20.6-33.1,40.64-33.1,22.91,0,41.47,18.57,41.47,41.48Z"/>
  <path class="cls-1" d="m580.05,500.73c0,13.99-5.22,26.81-13.9,36.75-32-16.08-60.08-30.94-76.57-39.64,0,0-10.68-4.85-26.58-12.12,6.86-24.33,30-42.23,57.49-42.23,15.05,0,28.8,5.37,39.28,14.21,2.11,8.95,7.89,16.48,15.67,20.92,2.97,6.8,4.61,14.27,4.61,22.11Z"/>
  <path class="cls-1" d="m731.59,451.67c-7.53,9.22-12.14,20.9-12.48,33.64-4.81,3.2-10.58,5.06-16.78,5.06-16.8,0-30.42-13.62-30.42-30.42,0-5.15,1.28-10.01,3.55-14.26,8.3-3.44,15.58-8.84,21.26-15.62,1.82-.35,3.69-.53,5.61-.53,13.92,0,25.66,9.36,29.26,22.13Z"/>
  <path class="cls-1" d="m407.1,259.42c0,5.15-1.8,9.88-4.8,13.61-3.95,4.93-10.01,8.1-16.82,8.14h-.13c-12.01,0-21.75-9.74-21.75-21.75,0-3.37.77-6.57,2.15-9.42h0c3.44-7.16,10.69-12.14,19.11-12.32.16-.01.33-.01.49-.01,12.01,0,21.75,9.74,21.75,21.75Z"/>
  <path class="cls-1" d="m448.59,310.72c0,3.83-.56,7.53-1.61,11.02-4.73,15.88-19.45,27.46-36.87,27.46-21.25,0-38.47-17.23-38.47-38.48,0-11.88,5.38-22.5,13.84-29.55,6.81-.04,12.87-3.21,16.82-8.14,2.52-.52,5.13-.79,7.81-.79,18.46,0,33.88,13,37.61,30.34.57,2.62.87,5.35.87,8.14Z"/>
  <path class="cls-1" d="m577.3,308.92c0,2.84-.63,5.53-1.76,7.94-2.99,6.4-9.49,10.84-17.02,10.84-4.76,0-9.12-1.77-12.42-4.7-3.9-3.44-6.35-8.48-6.35-14.08,0-4.48,1.57-8.6,4.2-11.82,3.43-4.24,8.68-6.95,14.57-6.95,7.76,0,14.43,4.71,17.28,11.42.97,2.26,1.5,4.74,1.5,7.35Z"/>
  <path class="cls-1" d="m624.48,450.13c0,18.12-14.68,32.8-32.79,32.8-5.91,0-11.46-1.57-16.25-4.31-7.78-4.44-13.56-11.97-15.67-20.92-.58-2.43-.88-4.96-.88-7.57,0-18.11,14.69-32.79,32.8-32.79,4.84,0,9.44,1.05,13.58,2.94,8.37,3.81,14.85,11.03,17.67,19.89,1,3.14,1.54,6.49,1.54,9.96Z"/>
  <path class="cls-1" d="m830.5,486.82c0,22-12.75,41.02-31.28,50.06-4.64,2.28-9.65,3.92-14.92,4.83-3.09.53-6.27.81-9.51.81-30.76,0-55.7-24.94-55.7-55.7,0-.5.01-1.01.02-1.51.34-12.74,4.95-24.42,12.48-33.64,10.2-12.55,25.77-20.56,43.2-20.56s34.23,8.65,44.39,22.06c4.46,5.86,7.78,12.63,9.63,19.99,1.1,4.37,1.69,8.95,1.69,13.66Z"/>
  <path class="cls-1" d="m874.71,452.11c0,2.79-.41,5.49-1.18,8.03-3.44,11.44-14.04,19.76-26.6,19.76-6.92,0-13.25-2.53-18.12-6.74-1.85-7.36-5.17-14.13-9.63-19.99-.02-.35-.03-.7-.03-1.06,0-15.34,12.44-27.78,27.78-27.78,10.93,0,20.38,6.31,24.92,15.49,1.83,3.7,2.86,7.88,2.86,12.29Z"/>
  <path class="cls-1" d="m966.66,446.13c0,26.3-21.32,47.62-47.61,47.62-21.42,0-39.54-14.15-45.52-33.61.77-2.54,1.18-5.24,1.18-8.03,0-4.41-1.03-8.59-2.86-12.29,2.44-18.42,15.42-33.52,32.68-39.04,4.01-1.29,8.25-2.05,12.65-2.22.62-.03,1.24-.04,1.87-.04,26.29,0,47.61,21.32,47.61,47.61Z"/>
  <path class="cls-1" d="m822.64,560.79c0,6.31-2.44,12.04-6.43,16.3-4.36,4.69-10.59,7.62-17.5,7.62-1.72,0-3.4-.18-5.02-.53-10.8-2.31-18.9-11.9-18.9-23.39,0-7.8,3.73-14.72,9.51-19.08,5.27-.91,10.28-2.55,14.92-4.83,12.99.27,23.42,10.87,23.42,23.91Z"/>
  <path class="cls-1" d="m398.63,203.53c0,13.27-5.24,25.3-13.77,34.15-8.42.18-15.67,5.16-19.11,12.31h0c-5.12,1.82-10.63,2.8-16.37,2.8-27.2,0-49.26-22.05-49.26-49.26,0-6.78,1.37-13.25,3.85-19.13,1.87-.79,3.79-1.58,5.73-2.38,20.92-8.57,44.58-15.21,66.6-19.73,13.45,8.79,22.33,23.98,22.33,41.24Z"/>
</svg>