<?xml version="1.0" encoding="UTF-8"?>
<svg id="Layer_1" data-name="Layer 1" xmlns="http://www.w3.org/2000/svg" viewBox="0 0 1366 768">
  <defs>
    <style>
      .cls-1 {
        fill: #fff
      }
    </style>
  </defs>
  <path class="cls-1" d="m409.71,451.48c.39-.09.79-.18,1.23-.28-.43.1-.84.19-1.23.28Z"/>
  <path class="cls-1" d="m711.18,405.75c-.07.2-.14.41-.22.62-9.45,26.68-5.94,28.9-28.38,36.79-22.43,7.89-35.12-1.2-36.82-4.98-1.7-3.79-6.14-21.06-21.74-23.53-15.6-2.47-25.09-16.51-35.36-17.68-7.68-.88-24.81,1.37-43.15,2.57-2.49.16-4.99.3-7.51.42v-4.15c2.29-.07,4.6-.2,6.93-.36,19.8-1.34,40.9-4.94,55.26,2.89,0,0,2.71-18.24.28-32.1,1.22-.21,2.45-.41,3.69-.59,2.76,12.12,1.37,26.77,1.37,30.78,0,5.28,4.52,12.7,18.08,15.76,13.56,3.05,18.19,8.6,23.48,17.08,5.29,8.5,10.58,15.22,32.41,11.14s24.48-23.26,26.46-34.83c.25-1.43.68-2.84,1.25-4.21,1.36,1.45,2.68,2.91,3.97,4.38Z"/>
</svg>