<?xml version="1.0" encoding="UTF-8"?>
<svg id="Layer_1" data-name="Layer 1" xmlns="http://www.w3.org/2000/svg" viewBox="0 0 1366 768">
  <defs>
    <style>
      .cls-1 {
        fill: #fff
      }
    </style>
  </defs>
  <path class="cls-1" d="m917.26,271.32c-39.18-2.7-37.25,45.55-39.57,67.75-2.31,22.19-22.39,43.23-38.02,46.28-15.63,3.05-44.97-1.32-67.46,0-22.49,1.33-33.47,32.01-39.42,42.73-5.95,10.71-18.25,21.17-42.99,17.46-24.74-3.7-36.52.63-49.21,11.18-12.7,10.55-34.39,19.73-54.12-.78-19.73-20.51-39.26-42.01-57.43-48.45-18.17-6.45-42.38,3-69.5,7.12-27.11,4.11-42.22-11.85-55.73-15.77-13.51-3.92-29.25,6.46-39.13,10.46-5.39,2.19-9.15,5.46-16.51,5.61,0,0,6.42,6.8,8.67,8.53,8.53-5.24,22.08-10.13,29.88-13.79,10.82-5.08,20.07-2.35,26.97.65,6.91,3,21.89,5.99,34.14,14.07,2.49,1.64,4.25,4.53,5.46,8.08l3.43-.46c-.68-1.75-1.48-3.38-2.45-4.84,0,0-3.34-3.28-2.89-7.58.45-4.3,16.27-1.56,25.4-3.23,9.14-1.67,42.23-10.92,62.18,4.57,14.77,11.47,28.22,25.11,34.21,31.41,1.74,1.83,1.6,4.74-.29,6.41-1.71,1.5-3.81,3.51-5.82,5.87l3.16,3.82c8.7-11.32,19.3,1.36,30.04,5.53,12.89,5.01,23.78,3.43,45.35-12.48,21.57-15.91,45.44-4.86,68.22-9.3,22.77-4.44,29.33-26.82,38.41-44.39,9.07-17.57,22.38-11.96,33-6.76,10.62,5.22,42.08,21.43,67.75,11.2,25.67-10.23,27.99-44.39,32.23-78.75,4.25-34.36,8.88-47.48,22.97-53.46,3.78-1.61,9.42-2.26,16.04-2.36l1.79-5.69c-2.89-.22-5.82-.44-8.76-.64Zm-56.84,125.41c-.98,2.8-3.55,4.22-4.99,4.99-9.92,5.29-14.89,7.93-21.11,8.63-10.84,1.22-18.88-2.16-21.99-3.51-3.7-1.61-10.22-4.44-10.12-8.23.09-3.36,6-5.57,6.9-5.84,5.08-1.5,11.35-.13,12.94.43,2.75.97,7.24.86,11.29.46,2.62-.26,4.61-.69,10.29-2.26,3.91-1.09,6.59-1.96,10.59-1.96,3.68,0,4.86.73,5.53,1.48,1.9,2.14.73,5.63.67,5.81Z"/>
  <path class="cls-1" d="m409.71,451.48c.39-.09.79-.18,1.23-.28-.43.1-.84.19-1.23.28Z"/>
</svg>