<?xml version="1.0" encoding="UTF-8"?>
<svg id="Layer_1" data-name="Layer 1" xmlns="http://www.w3.org/2000/svg" viewBox="0 0 1366 768">
  <defs>
    <style>
      .cls-1 {
        fill: #fff
      }
    </style>
  </defs>
  <path class="cls-1" d="m1221.32,383.4c-28.35-61.15-57.7-61.82-127.41-69.69-29.63-3.34-47.2-6.88-60.05-12.46-5.38-2.34-9.93-5.04-14.19-8.24-9.51-7.12-17.58-16.71-30.19-30.29-24.22-26.08-57.96-39.35-72.59-44.17-4.54-1.5-7.24-2.18-7.24-2.18-4.3-1.47-8.58-2.9-12.83-4.28-53.14-17.3-103.27-28.12-156.12-33.04-41.17-3.82-83.99-4.07-131.18-1.02-112.61,7.3-144.06,32.58-169.51,82.74-25.45,50.16-53.87,46.45-53.87,46.45-47.68,0-52.63-77.59-96.36-77.59-31.38,0-55.84,29.41-66.47,45.96-10.62,16.56-16.2,23.99-23.99,32.37-7.78,8.37-23.28-2.29-23.28-2.29-1.83,20.28-7.21,42.14-17.84,65.05,51.2,1.15,89.12,21.82,101.51,32.18,12.88,10.77,20.55,56.56,27.71,71.45,7.17,14.89,24.32,47.89,61.08,44.87,36.77-3.02,42.8-12.44,91.25-33.93,5.39-2.39,10.41-4.32,15.09-5.84,4.97-1.61,9.56-2.75,13.81-3.49,27.74-4.86,40.78,7.52,48.77,20.45,3.95,6.38,5.3,16.24,6.3,26.83.55,5.77.99,11.76,1.69,17.51h0c1.39,11.47,3.81,21.98,10.11,28.05,15.27,14.7,35.06,22.62,48.63,26.02,5.67,1.41,14.2,3.82,26,5.13,7.08.79,15.33,1.19,24.86.75,12.62-.58,27.46-2.63,44.73-7.2,16.19-4.28,28.71-8.86,38.92-13.42,22.6-10.11,33.88-20.17,48.55-26.93,10.53-4.85,19.73-1.63,26.75,3.49,7.17,5.22,12.07,12.42,13.78,14.99.59.9,1.56,2.54,2.94,4.69,6.43,10.07,21.86,31.28,50.6,39.04,34.88,9.43,62.78,8.49,82.01-1.88,3.91-2.11,7.2-4.9,9.98-8.18,3.41-4.04,6.02-8.8,7.96-13.88,4.23-11.06,5.3-23.59,4.68-33.37-1.06-16.76-1.46-32.86-35.5-52.16-2.33-1.32-4.82-2.66-7.48-4.01-16.55-8.43-34.06-11.39-51.09-11.19h-.01c-25.65.3-50.22,7.78-68.8,14.58-25.48,9.32-62.73,33.75-84.12,47.01-4.57,2.84-8.42,5.16-11.27,6.72-16.22,8.86-67.49,22.43-88.61,21.68-4.63-.17-9.05-.38-13.33-.78-15.26-1.44-28.98-5.31-45.68-18.23-4.86-3.76-8.45-8.08-11.13-12.74-3.19-5.53-5.1-11.55-6.35-17.69-2.34-11.47-2.38-23.35-4.1-33.22-3.41-19.6-5.03-32.73-33.08-42.98-18.51-6.76-32.19-6.77-44.91-4.3-4.72.91-9.31,2.17-13.96,3.54-1.82.54-3.66,1.1-5.51,1.66-19.35,5.87-36.86,24.82-69.95,34.71-33.08,9.89-47.11-2.88-58.08-18.89-10.97-16-23.73-53.4-32.72-70.12-8.99-16.73-23.74-25.18-28.59-27.16-4.86-1.97-25.59-11.41-32.05-18.88-6.45-7.47-4.02-24.28-4.02-24.28,12.45-52.41,54.2-79.32,69.76-83.9,15.56-4.58,34.17,10.68,51.56,44.54,17.39,33.86,47.7,33.21,47.7,33.21,59.96,1.74,61.26-89.94,103.41-91.68,22.49-.93,39.19,26.99,48.8,48.95,2.16,4.92,3.96,9.54,5.39,13.47,2.66,7.34,4.04,12.27,4.04,12.27,23.32,62.52,70.79,83.11,111.96,88.21,9.99,1.24,19.61,1.57,28.42,1.36,11.53-.27,21.68-1.46,29.48-2.72,10.19-1.64,16.36-3.4,16.36-3.4,56.59-6.75,114.95-113.31,179.77-127.99,18.69-4.23,41.27-7.04,77.1,29.75,8.76,9,20.41,15.51,33.66,20.38,4.62,1.7,9.43,3.2,14.38,4.54,38.89,10.5,86.38,11,116.09,19.17,44.35,12.19,52.89,46.59,54.5,57.57,1.57,10.74-5.24,21.64-5.52,22.09.05-.01.11-.02.16-.03l31.55-7.71.13-.03c-5.91-.8-12.95-25.97-12.95-25.97Zm-371.74-101.07c-6.92,7.26-19.03,19.76-35.98,35.2-11.86,10.81-26.1,23.07-42.57,35.99-9.68,7.59-20.37,13.03-31.4,16.79-6.72,2.3-13.57,3.97-20.4,5.13-10.3,1.75-20.55,2.34-30.25,2.16h-.01c-10.32-.21-20-1.3-28.45-2.82-5.4-.96-10.29-2.11-14.51-3.31-27.95-7.95-47.25-10.13-75.31-59.13-5.53-9.66-10.08-18.62-13.8-26.88-2.06-4.53-3.85-8.85-5.43-12.95-9.65-25.05-11.09-42.1-10.28-50.61.45-4.81,5.84-13.68,20.09-20.47,11.78-5.61,32.93-9.38,55.06-11.61,15.8-1.59,32.11-2.38,45.85-2.51,21.98-.2,56.92,2.62,82.98,5.3,13.01,1.34,23.81,2.64,29.69,3.52,15.9,2.39,78.35,14.8,97.25,28.63,2.08,1.53,3.64,3.06,4.54,4.61,1.15,1.97,1.77,4.09,1.93,6.32,1.21,15.38-18.72,35.84-29,46.64Z"/>
</svg>