<?xml version="1.0" encoding="UTF-8"?>
<svg id="Layer_1" data-name="Layer 1" xmlns="http://www.w3.org/2000/svg" viewBox="0 0 1366 768">
  <defs>
    <style>
      .cls-1 {
        fill: #ffffff
      }
    </style>
  </defs>
  <path class="cls-1" d="m599.38,342.62c-6.72,2.3-13.57,3.97-20.4,5.13.12-.67.24-1.16.34-1.45.47-1.32,8.89-1.7,20.06-3.68Z"/>
  <path class="cls-1" d="m993.61,504.71c-12.9,63.05-60.07,82.17-67.27,86.64-7.19,4.46-36.11,10.29-73.26-9.48-10.73-5.71-21.55-11.96-32.1-18.14,4.23-11.06,5.3-23.59,4.68-33.37-1.06-16.76-1.46-32.86-35.5-52.16-2.33-1.32-4.82-2.66-7.48-4.01-16.55-8.43-34.06-11.39-51.09-11.19h-.01c-25.65.3-50.22,7.78-68.8,14.58-25.48,9.32-62.73,33.75-84.12,47.01-41.24.72-90.36-.16-115.87-4.76-16.32-2.94-38.5-7.99-60.5-16.28-2.34-11.47-2.38-23.35-4.1-33.22-3.41-19.6-5.03-32.73-33.08-42.98-18.51-6.76-32.19-6.77-44.91-4.3-8.11-49.33,23.23-97.29,23.23-97.29,0,0,20.68-28.6,35.23-39.33,6.17-4.54,14.71-11.65,23.28-18.21,2.66,7.34,4.04,12.27,4.04,12.27,23.32,62.52,70.79,83.11,111.96,88.21-6.47,13.73-12.95,18.63-22.07,23.92-9.53,5.53-17.83,13.13-16.44,25.98,1.38,12.86,8.15,20.74,16.03,24.75,7.88,4.01,22.67,7.74,39.67-9.82,17-17.55,30.9-31.27,35.95-46.21,2.01-5.95,3.56-13.21,4.76-19.98,10.19-1.64,16.36-3.4,16.36-3.4,56.59-6.75,114.95-113.31,179.77-127.99,18.69-4.23,41.27-7.04,77.1,29.75,8.76,9,20.41,15.51,33.66,20.38,1.35,7.55,2.85,14.36,4.68,19.46,6.78,18.95,25.03,37.2,36.51,43.64,11.47,6.43,43.46,16.17,57.72,36.34,14.26,20.16,24.88,56.14,11.97,119.19Z"/>
  <path class="cls-1" d="m879.42,265.32c-9.51-7.12-17.58-16.71-30.19-30.29-24.22-26.08-57.96-39.35-72.59-44.17,2.71-1.31,5.12-2.5,7.14-3.55,21.39-11.13,37.56-9.74,52.51-2.43,14.95,7.3,28.17,26.95,35.12,43.11,3.45,8.01,5.75,22.48,8.01,37.33Z"/>
  <path class="cls-1" d="m383.47,495.55c-23.1-11.09-43.98-26.36-55.07-47.28,27.74-4.86,40.78,7.52,48.77,20.45,3.95,6.38,5.3,16.24,6.3,26.83Z"/>
  <path class="cls-1" d="m709.33,254.64c-6.92,7.26-19.03,19.76-35.98,35.2,2.69-5.54,4.36-11.67,5.1-19.23,2.28-23.22-7.61-36.38,5.69-40.71,7.44-2.42,31.08-11.99,54.19-21.9,1.21,15.38-18.72,35.84-29,46.64Z"/>
  <path class="cls-1" d="m520.27,347.09c-5.4-.96-10.29-2.11-14.51-3.31-27.95-7.95-47.25-10.13-75.31-59.13-5.53-9.66-10.08-18.62-13.8-26.88,5.97-3.73,11.11-6.05,14.36-5.55,9.96,1.53,6.4,14.75,10.68,22.77,4.29,8.02,14.65,25.99,26.26,35.8s46.31,26.82,47.97,28.47c.78.78,2.96,3.54,4.35,7.83Z"/>
</svg>