<?xml version="1.0" encoding="UTF-8"?>
<svg id="Layer_1" data-name="Layer 1" xmlns="http://www.w3.org/2000/svg" viewBox="0 0 1366 768">
  <defs>
    <style>
      .cls-1 {
        fill: #fff;
      }

      .cls-2 {
        fill: #fff;
      }
    </style>
  </defs>
  <path class="cls-2" d="m806.22,295.84c-4.84-6.33-10.16-12.3-15.88-17.83-29.06-28.19-68.7-45.52-112.37-45.52-38.4,0-73.68,13.4-101.4,35.79-7.78,6.29-14.96,13.28-21.45,20.88-18.66,21.85-31.6,48.75-36.48,78.36-.96,5.8-1.61,11.71-1.92,17.7-.16,2.9-.24,5.82-.24,8.76,0,14.98,2.04,29.48,5.86,43.24,2.66,9.61,6.19,18.86,10.5,27.66,2.55,5.21,5.38,10.27,8.46,15.15,28.6,45.32,79.12,75.43,136.67,75.43,45.4,0,86.42-18.73,115.75-48.89,4.81-4.93,9.29-10.17,13.44-15.69,20.28-26.99,32.3-60.54,32.3-96.9s-12.39-70.94-33.24-98.14Zm-128.76-49.07c38.17,0,72.93,14.56,99.05,38.43-10.99,5.78-20.96,11.2-24.14,13.45-8.16,5.77-21.69,11.14-42-1.4-20.3-12.54-60.71-7.16-81.21,2.79-20.5,9.95-35.05-14.66-35.05-14.66-1.97-2.82-4.15-5.45-6.54-7.9,24.84-19.25,56.02-30.71,89.89-30.71Zm32.3,153.54c-.66,2.76-2.6,10.85-9.88,15.76-4.61,3.11-9.06,3.4-14.92,3.78-6.51.43-16.22,1.07-25.44-5.04-2.58-1.71-9.01-5.97-11.56-14.08-2.87-9.14,1.04-17.24,3.37-22.07,1.5-3.13,5.08-10.3,13.24-15.35,2.74-1.69,8.56-5.29,16.6-4.83,8.11.47,13.59,4.79,15.98,6.73,4.78,3.88,7.13,8.15,8.4,10.51,1.84,3.4,6.99,12.97,4.21,24.59Zm-179.16-6.68c0-6.92.48-13.71,1.4-20.38h0c.18-1.28.37-2.54.58-3.8,4.38-26.42,15.81-50.46,32.28-70.12,21.8,24.38,17.79,33.85,14.75,44.28-3.44,11.79-17.44,34.12-4.58,68.55,12.87,34.43,8.75,37.7-6.46,42.9-3.22,1.1-10.79,3.49-21.45,6.29-10.56-20.27-16.52-43.3-16.52-67.72Zm146.86,146.86c-50.72,0-95.44-25.71-121.83-64.82,23.32-7.52,39.84-14.84,45.59-16.16,12.5-2.89,24.28,19.95,56.99,25.73,32.7,5.77,51.7-6.5,65.64-10.83,13.95-4.32,24.29,1.94,24.29,1.94,0,0,13.61,8.77,32.72,21.56-26.54,26.32-63.07,42.58-103.4,42.58Zm116.63-57.61c-21-13.3-38.36-26.78-37.86-35.07,1.09-18.07,24.69-54.65,11.34-101.64,0,0-8.96-22.14,0-28.59,4.42-3.17,12.99-8.46,25.19-14.91,19.75,25.01,31.55,56.61,31.55,90.96s-11.27,64.51-30.22,89.25Z"/>
  <path class="cls-1" d="m709.76,400.31c-.66,2.76-2.6,10.85-9.88,15.76-4.61,3.11-9.06,3.4-14.92,3.78-6.51.43-16.22,1.07-25.44-5.04-2.58-1.71-9.01-5.97-11.56-14.08-2.87-9.14,1.04-17.24,3.37-22.07,1.5-3.13,5.08-10.3,13.24-15.35,2.74-1.69,8.56-5.29,16.6-4.83,8.11.47,13.59,4.79,15.98,6.73,4.78,3.88,7.13,8.15,8.4,10.51,1.84,3.4,6.99,12.97,4.21,24.59Z"/>
</svg>