<?xml version="1.0" encoding="UTF-8"?>
<svg id="Layer_1" data-name="Layer 1" xmlns="http://www.w3.org/2000/svg" viewBox="0 0 1366 768">
  <defs>
    <style>
      .cls-1 {
        fill: 
white
;
      }

      .cls-2 {
        stroke: 
white
;
        stroke-width: 2px;
      }

      .cls-2, .cls-3 {
        fill: none;
        stroke-miterlimit: 10;
      }

      .cls-3 {
        stroke: #fff;
      }
    </style>
  </defs>
  <rect class="cls-1" x="167.97" y="106.79" width="1025.5" height="544.25" rx="272.12" ry="272.12" transform="translate(-16.33 30.95) rotate(-2.57)"/>
  <g>
    <path class="cls-3" d="m921.31,149.35c56.33,0,109.88,21.48,150.78,60.47,41.01,39.11,65,91.84,67.55,148.47,1.33,29.53-3.16,58.4-13.33,85.82-9.83,26.51-24.55,50.6-43.73,71.59-19.18,20.99-41.85,37.8-67.37,49.98-26.4,12.59-54.75,19.65-84.28,20.97l-480.76,21.61c-3.38.15-6.66.23-10.03.23-56.33,0-109.88-21.48-150.78-60.47-41.01-39.11-65-91.84-67.55-148.47-1.33-29.53,3.16-58.4,13.33-85.82,9.83-26.51,24.55-50.6,43.73-71.59,19.18-20.99,41.85-37.8,67.37-49.98,26.4-12.59,54.75-19.65,84.28-20.97l480.76-21.61c3.38-.15,6.66-.23,10.03-.23"/>
    <path class="cls-3" d="m921.31,140.46c58.63,0,114.36,22.35,156.91,62.93,42.68,40.7,67.65,95.57,70.3,154.5,1.38,30.72-3.29,60.77-13.88,89.31-10.24,27.59-25.55,52.65-45.51,74.49-19.96,21.84-43.55,39.34-70.11,52.01-27.48,13.11-56.98,20.45-87.71,21.83l-480.76,21.61c-3.51.16-6.92.23-10.43.23-58.63,0-114.36-22.35-156.91-62.93-42.68-40.7-67.65-95.57-70.3-154.5-1.38-30.72,3.29-60.77,13.88-89.31,10.24-27.59,25.55-52.65,45.51-74.49,19.96-21.84,43.55-39.34,70.11-52.01,27.48-13.11,56.98-20.45,87.71-21.83l480.76-21.61c3.51-.16,6.92-.23,10.43-.23"/>
    <path class="cls-3" d="m921.31,131.56c60.93,0,118.83,23.22,163.05,65.39,44.35,42.29,70.29,99.31,73.04,160.54,1.43,31.92-3.42,63.14-14.42,92.8-10.64,28.67-26.54,54.71-47.28,77.4-20.74,22.69-45.25,40.87-72.85,54.03-28.56,13.62-59.22,21.25-91.14,22.69l-480.76,21.61c-3.65.16-7.19.24-10.83.24-60.93,0-118.83-23.22-163.05-65.39-44.35-42.29-70.29-99.31-73.04-160.54-1.43-31.92,3.42-63.14,14.42-92.8,10.64-28.67,26.54-54.71,47.28-77.4,20.74-22.69,45.25-40.87,72.85-54.03,28.56-13.62,59.22-21.25,91.14-22.69l480.76-21.61c3.65-.16,7.19-.24,10.83-.24"/>
    <path class="cls-3" d="m921.31,122.67c63.22,0,123.31,24.09,169.19,67.84,46.02,43.88,72.94,103.04,75.79,166.58,1.49,33.11-3.55,65.51-14.97,96.3-11.04,29.75-27.54,56.77-49.05,80.31-21.51,23.54-46.94,42.4-75.58,56.06-29.64,14.14-61.45,22.06-94.57,23.55l-480.76,21.61c-3.73.17-7.51.25-11.23.25-63.22,0-123.31-24.09-169.19-67.84-46.02-43.88-72.94-103.04-75.79-166.58-1.49-33.11,3.55-65.51,14.97-96.3,11.04-29.75,27.54-56.77,49.05-80.31,21.51-23.54,46.94-42.4,75.58-56.06,29.64-14.14,61.45-22.06,94.57-23.55l480.76-21.61c3.73-.17,7.51-.25,11.23-.25"/>
    <path class="cls-3" d="m921.31,113.77c65.52,0,127.79,24.97,175.33,70.3,47.69,45.47,75.58,106.78,78.54,172.62,1.54,34.31-3.68,67.88-15.51,99.79-11.44,30.83-28.54,58.83-50.83,83.21-22.29,24.39-48.64,43.93-78.32,58.09-30.72,14.65-63.69,22.86-98,24.4l-480.76,21.61c-3.86.17-7.78.26-11.63.26-65.52,0-127.79-24.97-175.33-70.3-47.69-45.47-75.58-106.78-78.54-172.62-1.54-34.31,3.68-67.88,15.51-99.79,11.44-30.83,28.54-58.83,50.83-83.21,22.29-24.39,48.64-43.93,78.32-58.09,30.72-14.65,63.69-22.86,98-24.4l480.76-21.61c3.86-.17,7.78-.26,11.63-.26"/>
    <path class="cls-3" d="m921.31,104.88c67.82,0,132.26,25.84,181.47,72.76,49.36,47.06,78.22,110.51,81.29,178.66,1.6,35.5-3.81,70.25-16.06,103.28-11.84,31.91-29.53,60.88-52.6,86.12-23.07,25.24-50.34,45.46-81.06,60.12-31.8,15.17-65.92,23.67-101.43,25.26l-480.76,21.61c-4,.18-8.04.27-12.03.27-67.82,0-132.26-25.84-181.47-72.76-49.36-47.06-78.22-110.51-81.29-178.66-1.6-35.5,3.81-70.25,16.06-103.28,11.84-31.91,29.53-60.88,52.6-86.12,23.07-25.24,50.34-45.46,81.06-60.12,31.8-15.17,65.92-23.67,101.43-25.26l480.76-21.61c4-.18,8.04-.27,12.03-.27"/>
  </g>
  <path class="cls-2" d="m1011.89,704.12c-1.25.68-1.9,1.04-1.9,1.04"/>
  <path class="cls-2" d="m346.99,740.41s-.03,0-.04-.02"/>
  <line class="cls-2" x1="1018.87" y1="469.56" x2="1018.86" y2="469.56"/>
  <path class="cls-2" d="m945.51,520.68h-.03"/>
  <path class="cls-2" d="m340.93,329.51s-.02,0-.02,0"/>
</svg>