<?xml version="1.0" encoding="UTF-8"?>
<svg id="Layer_1" data-name="Layer 1" xmlns="http://www.w3.org/2000/svg" viewBox="0 0 1366 768">
  <defs>
    <style>
      .cls-1 {
        fill: #c6c6c6;
      }
    </style>
  </defs>
  <path class="cls-1" d="m1173.95,174.14l-94.98-4.37-89.94-3.22-88.34-2.64-101.2-1.26-116.48-.65c-14.97,2.1-37.63,6.71-55.97,10.1-18.95,3.5-40.11,6.37-40.11,6.37,0,0-40.98,4.77-69.15,1.85-28.17-2.93-99.31-12.87-99.31-12.87l-87.71,23.78s-6.34,1.47-9.68,1.83c-9.59,1.07-36.03,2.59-36.03,2.59l-96.22,5.9-62.99,3.85-6.65,45.4-12.07,79.44-1.63,10.95-12.41,84.66-5.28,36.77-1.45,9.47,152.19,13.26s12.79,1.1,13.72,13.23c1.35,17.56-15.09,58.22-15.09,58.22l-13.1,38.73h3.59l135.61.03h44.18s16.82-41.57,22.34-54.79c5.53-13.21,11.32-20.93,11.32-20.93,0,0,10.45-13.81,28.93-13.36,13.84.33,171.53,14.6,171.53,14.6,0,0,49.8-1.97,86.1,40.24,0,0,16.68,17.3,27.04,34.23h32.85s-1.06-3.2-2.44-7.4c6.87-.23,10.13-1.09,12.98-3.04,2.85-1.95,7.98-5.54,8.79-18,.82-12.45,3.99-18.81,4.89-20.11.89-1.3,2.77-8.31,21.74-10.26,18.97-1.95,36.64,3.18,42.1,4.32s32.57,8.47,41.45,15.47c8.87,7,7.16,12.62,6.92,19.38s-9.55,19.33-9.55,19.33h176.72c69.39-72.75,172.13-125.74,172.13-125.74v-249.06c-42.97-12.86-89.34-46.3-89.34-46.3Zm6.23,183.03c-1.21,55.99-94.58,81-131.46,81.86-36.88.85-43.43-2.89-72.13,11.46-28.7,14.35-60.22,16.31-93.49,9.57-33.26-6.74-68.92-14.44-87.18-27.88-18.26-13.43-23.4-44.52-56.6-39.3-12.95,2.03-21.91,6.92-28.02,12.12,0,0-69.59-42.29-111.96-96.76,24.83,3.5,63.34,11.13,82.2,15.24.06.02.11.03.16.04,0,0,23.22,9.62,62.61,7.66,39.39-1.95,93.84-13.74,118.63-20.86s143-43.54,211.48-31.52c68.48,12.02,106.96,22.37,105.76,78.37Z"/>
</svg>